<mxfile host="app.diagrams.net" modified="2023-08-08T06:19:59.315Z" agent="Mozilla/5.0 (Macintosh; Intel Mac OS X 10_15_7) AppleWebKit/537.36 (KHTML, like Gecko) Chrome/115.0.0.0 Safari/537.36 Edg/115.0.1901.188" etag="mwftlJ0Q6fJUZbYTYzVk" version="21.6.6" type="device">
  <diagram name="第 1 页" id="VVAiYZ6-t6Ixb3h2vfTi">
    <mxGraphModel dx="2074" dy="1188" grid="1" gridSize="10" guides="1" tooltips="1" connect="1" arrows="1" fold="1" page="1" pageScale="1" pageWidth="827" pageHeight="1169" math="0" shadow="0">
      <root>
        <mxCell id="0" />
        <mxCell id="1" parent="0" />
        <mxCell id="_4pFyjOT5PPAY8ySI4j--1" value="MorselQueueFactory" style="swimlane;fontStyle=0;childLayout=stackLayout;horizontal=1;startSize=26;fillColor=none;horizontalStack=0;resizeParent=1;resizeParentMax=0;resizeLast=0;collapsible=1;marginBottom=0;whiteSpace=wrap;html=1;" parent="1" vertex="1">
          <mxGeometry x="220" y="240" width="350" height="130" as="geometry" />
        </mxCell>
        <mxCell id="_4pFyjOT5PPAY8ySI4j--2" value="+ &lt;i&gt;&lt;font style=&quot;font-size: 11px;&quot;&gt;&lt;font color=&quot;#ff0000&quot;&gt;virtual&lt;/font&gt; MorselQueue* &lt;font color=&quot;#3333ff&quot;&gt;&lt;b&gt;create(int driver_sequence)&lt;/b&gt; &lt;/font&gt;= 0;&lt;/font&gt;&lt;/i&gt;" style="text;strokeColor=none;fillColor=none;align=left;verticalAlign=top;spacingLeft=4;spacingRight=4;overflow=hidden;rotatable=0;points=[[0,0.5],[1,0.5]];portConstraint=eastwest;whiteSpace=wrap;html=1;" parent="_4pFyjOT5PPAY8ySI4j--1" vertex="1">
          <mxGeometry y="26" width="350" height="26" as="geometry" />
        </mxCell>
        <mxCell id="_4pFyjOT5PPAY8ySI4j--3" value="+&amp;nbsp;&lt;i style=&quot;border-color: var(--border-color);&quot;&gt;&lt;font style=&quot;border-color: var(--border-color); font-size: 11px;&quot;&gt;&lt;font style=&quot;border-color: var(--border-color);&quot; color=&quot;#ff0000&quot;&gt;virtual&lt;/font&gt;&lt;/font&gt;&lt;/i&gt;&lt;i&gt;&amp;nbsp;size_t &lt;font color=&quot;#3333ff&quot;&gt;&lt;b&gt;num_original_morsels() &lt;/b&gt;&lt;/font&gt;const = 0;&lt;/i&gt;" style="text;strokeColor=none;fillColor=none;align=left;verticalAlign=top;spacingLeft=4;spacingRight=4;overflow=hidden;rotatable=0;points=[[0,0.5],[1,0.5]];portConstraint=eastwest;whiteSpace=wrap;html=1;" parent="_4pFyjOT5PPAY8ySI4j--1" vertex="1">
          <mxGeometry y="52" width="350" height="26" as="geometry" />
        </mxCell>
        <mxCell id="_4pFyjOT5PPAY8ySI4j--4" value="&lt;i&gt;+&amp;nbsp;&lt;/i&gt;&lt;i style=&quot;border-color: var(--border-color);&quot;&gt;&lt;font style=&quot;border-color: var(--border-color); font-size: 11px;&quot;&gt;&lt;font style=&quot;border-color: var(--border-color);&quot; color=&quot;#ff0000&quot;&gt;virtual&lt;/font&gt;&lt;/font&gt;&lt;/i&gt;&lt;i&gt;&amp;nbsp;bool &lt;font color=&quot;#3333ff&quot;&gt;&lt;b&gt;is_shared()&lt;/b&gt;&lt;/font&gt; const = 0;&lt;/i&gt;" style="text;strokeColor=none;fillColor=none;align=left;verticalAlign=top;spacingLeft=4;spacingRight=4;overflow=hidden;rotatable=0;points=[[0,0.5],[1,0.5]];portConstraint=eastwest;whiteSpace=wrap;html=1;" parent="_4pFyjOT5PPAY8ySI4j--1" vertex="1">
          <mxGeometry y="78" width="350" height="26" as="geometry" />
        </mxCell>
        <mxCell id="_4pFyjOT5PPAY8ySI4j--5" value="&lt;i&gt;+&amp;nbsp;&lt;/i&gt;&lt;i style=&quot;border-color: var(--border-color);&quot;&gt;&lt;font style=&quot;border-color: var(--border-color); font-size: 11px;&quot;&gt;&lt;font style=&quot;border-color: var(--border-color);&quot; color=&quot;#ff0000&quot;&gt;virtual&lt;/font&gt;&lt;/font&gt;&lt;/i&gt;&lt;i&gt;&amp;nbsp;bool &lt;font color=&quot;#3333ff&quot;&gt;&lt;b&gt;could_local_shuffle()&lt;/b&gt; &lt;/font&gt;const = 0;&lt;/i&gt;" style="text;strokeColor=none;fillColor=none;align=left;verticalAlign=top;spacingLeft=4;spacingRight=4;overflow=hidden;rotatable=0;points=[[0,0.5],[1,0.5]];portConstraint=eastwest;whiteSpace=wrap;html=1;" parent="_4pFyjOT5PPAY8ySI4j--1" vertex="1">
          <mxGeometry y="104" width="350" height="26" as="geometry" />
        </mxCell>
        <mxCell id="_4pFyjOT5PPAY8ySI4j--14" style="edgeStyle=orthogonalEdgeStyle;rounded=0;orthogonalLoop=1;jettySize=auto;html=1;exitX=0.5;exitY=0;exitDx=0;exitDy=0;entryX=0.444;entryY=1.011;entryDx=0;entryDy=0;entryPerimeter=0;" parent="1" source="_4pFyjOT5PPAY8ySI4j--6" target="_4pFyjOT5PPAY8ySI4j--5" edge="1">
          <mxGeometry relative="1" as="geometry" />
        </mxCell>
        <mxCell id="_4pFyjOT5PPAY8ySI4j--6" value="SharedMorselQueueFactory" style="swimlane;fontStyle=1;align=center;verticalAlign=top;childLayout=stackLayout;horizontal=1;startSize=26;horizontalStack=0;resizeParent=1;resizeParentMax=0;resizeLast=0;collapsible=1;marginBottom=0;whiteSpace=wrap;html=1;" parent="1" vertex="1">
          <mxGeometry x="50" y="470" width="240" height="78" as="geometry" />
        </mxCell>
        <mxCell id="_4pFyjOT5PPAY8ySI4j--7" value="&lt;i&gt;+ &lt;font color=&quot;#ff8000&quot;&gt;_queue&lt;/font&gt;: MorselQueuePtr&lt;/i&gt;" style="text;strokeColor=none;fillColor=none;align=left;verticalAlign=top;spacingLeft=4;spacingRight=4;overflow=hidden;rotatable=0;points=[[0,0.5],[1,0.5]];portConstraint=eastwest;whiteSpace=wrap;html=1;" parent="_4pFyjOT5PPAY8ySI4j--6" vertex="1">
          <mxGeometry y="26" width="240" height="26" as="geometry" />
        </mxCell>
        <mxCell id="_4pFyjOT5PPAY8ySI4j--10" value="+ _size: const int" style="text;strokeColor=none;fillColor=none;align=left;verticalAlign=top;spacingLeft=4;spacingRight=4;overflow=hidden;rotatable=0;points=[[0,0.5],[1,0.5]];portConstraint=eastwest;whiteSpace=wrap;html=1;" parent="_4pFyjOT5PPAY8ySI4j--6" vertex="1">
          <mxGeometry y="52" width="240" height="26" as="geometry" />
        </mxCell>
        <mxCell id="_4pFyjOT5PPAY8ySI4j--15" style="edgeStyle=orthogonalEdgeStyle;rounded=0;orthogonalLoop=1;jettySize=auto;html=1;exitX=0.5;exitY=0;exitDx=0;exitDy=0;entryX=0.445;entryY=0.982;entryDx=0;entryDy=0;entryPerimeter=0;" parent="1" source="_4pFyjOT5PPAY8ySI4j--11" target="_4pFyjOT5PPAY8ySI4j--5" edge="1">
          <mxGeometry relative="1" as="geometry" />
        </mxCell>
        <mxCell id="_4pFyjOT5PPAY8ySI4j--11" value="IndividualMorselQueueFactory" style="swimlane;fontStyle=1;align=center;verticalAlign=top;childLayout=stackLayout;horizontal=1;startSize=26;horizontalStack=0;resizeParent=1;resizeParentMax=0;resizeLast=0;collapsible=1;marginBottom=0;whiteSpace=wrap;html=1;" parent="1" vertex="1">
          <mxGeometry x="480" y="470" width="320" height="78" as="geometry" />
        </mxCell>
        <mxCell id="_4pFyjOT5PPAY8ySI4j--12" value="&lt;i&gt;+ &lt;font color=&quot;#ff8000&quot;&gt;_queue_per_driver_seq&lt;/font&gt;: std::vector&amp;lt;MorselQueuePtr&amp;gt;&lt;/i&gt;" style="text;strokeColor=none;fillColor=none;align=left;verticalAlign=top;spacingLeft=4;spacingRight=4;overflow=hidden;rotatable=0;points=[[0,0.5],[1,0.5]];portConstraint=eastwest;whiteSpace=wrap;html=1;" parent="_4pFyjOT5PPAY8ySI4j--11" vertex="1">
          <mxGeometry y="26" width="320" height="26" as="geometry" />
        </mxCell>
        <mxCell id="_4pFyjOT5PPAY8ySI4j--13" value="+ _could_local_shuffle: const bool" style="text;strokeColor=none;fillColor=none;align=left;verticalAlign=top;spacingLeft=4;spacingRight=4;overflow=hidden;rotatable=0;points=[[0,0.5],[1,0.5]];portConstraint=eastwest;whiteSpace=wrap;html=1;" parent="_4pFyjOT5PPAY8ySI4j--11" vertex="1">
          <mxGeometry y="52" width="320" height="26" as="geometry" />
        </mxCell>
      </root>
    </mxGraphModel>
  </diagram>
</mxfile>
